# xmcd
#
# Track frame offsets:
#	150
#	10087
#	19657
#	31335
#	42335
#	51027
#	62962
#	73950
#	87532
#	100905
#	114110
#	125750
#	138627
#	148827
#	161655
#	173247
#	189405
#	198105
#	209487
#	223312
#	237155
#	255710
#	268892
#	282227
#	292180
#	303415
#	313950
#	325860
#
# Disc length: 4510 seconds
#
# Revision: 0
# Processed by: cddbd v1.4PL0 Copyright (c) Steve Scherf et al.
# Submitted via: MusicWizard 6.0.0
#
DISCID=bd119c1c
DTITLE=Johnny Western - Heroes And Cowboys - Vol. 1
DYEAR=1993
DGENRE=Western
TTITLE0=The Ballad Of Paladin
TTITLE1=The Guns Of Rio Muerto (& Richard Boone)
TTITLE2=The Gunfighter
TTITLE3=Geronimo
TTITLE4=The Ballad Of Paladin
TTITLE5=The Lonely Man
TTITLE6=Hannah Lee (High Are The Gallows)
TTITLE7=Streets Of Laredo
TTITLE8=Cowpoke
TTITLE9=The Lilies Grow High
TTITLE10=Cottonwood Tree
TTITLE11=Rollin' Dust
TTITLE12=The Searchers
TTITLE13=Nineteen Men
TTITLE14=The Long Tall Shadow
TTITLE15=The Last Round-Up
TTITLE16=The Ballad Of Paladin
TTITLE17=The Streets Of Old Dodge City
TTITLE18=Mr. Rodeo Cowboy
TTITLE19=The Singin' Man
TTITLE20=The Big Battle
TTITLE21=Forty Shades Of Green
TTITLE22=Violet And A Rose
TTITLE23=Give Me More, More, More (Of Your Kisses)
TTITLE24=Let Old Mother Nature Have Her Way
TTITLE25=Little Buffalo Bill
TTITLE26=Love Me, Love Me, Love Me
TTITLE27=Honey, How Sweet Can You Be
EXTD=(c)1993 Bear Family
EXTT0=
EXTT1=
EXTT2=
EXTT3=
EXTT4=
EXTT5=
EXTT6=
EXTT7=
EXTT8=
EXTT9=
EXTT10=
EXTT11=
EXTT12=
EXTT13=
EXTT14=
EXTT15=
EXTT16=
EXTT17=
EXTT18=
EXTT19=
EXTT20=
EXTT21=
EXTT22=
EXTT23=
EXTT24=
EXTT25=
EXTT26=
EXTT27=
PLAYORDER=
